<svg xmlns="http://www.w3.org/2000/svg" xmlns:xlink="http://www.w3.org/1999/xlink" width="500" zoomAndPan="magnify" viewBox="0 0 375 374.999991" height="500" preserveAspectRatio="xMidYMid meet" version="1.0"><defs><g/><clipPath id="51bdd3be7c"><path d="M 37.527344 160.664062 L 131.742188 160.664062 L 131.742188 235.015625 L 37.527344 235.015625 Z M 37.527344 160.664062 " clip-rule="nonzero"/></clipPath><clipPath id="590c432ca5"><path d="M 48 139.765625 L 126 139.765625 L 126 190 L 48 190 Z M 48 139.765625 " clip-rule="nonzero"/></clipPath></defs><rect x="-37.5" width="450" fill="#ffffff" y="-37.499999" height="449.999989" fill-opacity="1"/><rect x="-37.5" width="450" fill="#ffffff" y="-37.499999" height="449.999989" fill-opacity="1"/><path fill="#2d63ad" d="M 91.066406 164.605469 C 90.542969 164.605469 90.117188 164.179688 90.117188 163.65625 C 90.117188 163.128906 90.542969 162.703125 91.066406 162.703125 C 91.59375 162.703125 92.019531 163.128906 92.019531 163.65625 C 92.019531 164.179688 91.59375 164.605469 91.066406 164.605469 Z M 90.679688 161.925781 C 89.199219 161.925781 88 163.125 88 164.605469 C 88 166.085938 89.199219 167.285156 90.679688 167.285156 C 92.160156 167.285156 93.359375 166.085938 93.359375 164.605469 C 93.359375 163.125 92.160156 161.925781 90.679688 161.925781 " fill-opacity="1" fill-rule="nonzero"/><path fill="#2d63ad" d="M 73.4375 219.457031 C 73.4375 219.457031 73.546875 219.5 73.753906 219.578125 C 73.960938 219.65625 74.265625 219.777344 74.671875 219.917969 C 75.480469 220.207031 76.683594 220.605469 78.257812 220.980469 C 79.046875 221.167969 79.925781 221.34375 80.894531 221.492188 C 81.863281 221.640625 82.914062 221.761719 84.046875 221.820312 C 86.3125 221.941406 88.898438 221.863281 91.664062 221.355469 C 94.433594 220.871094 97.382812 219.964844 100.296875 218.511719 C 100.65625 218.320312 101.027344 218.152344 101.386719 217.945312 C 101.746094 217.742188 102.105469 217.535156 102.46875 217.328125 C 102.824219 217.105469 103.179688 216.878906 103.539062 216.652344 C 103.898438 216.425781 104.242188 216.167969 104.597656 215.925781 C 105.996094 214.921875 107.347656 213.78125 108.625 212.503906 C 111.171875 209.949219 113.394531 206.832031 114.996094 203.289062 C 116.601562 199.75 117.574219 195.789062 117.734375 191.679688 C 117.898438 187.566406 117.253906 183.535156 115.941406 179.878906 C 114.632812 176.21875 112.675781 172.929688 110.34375 170.175781 C 108.003906 167.421875 105.300781 165.207031 102.523438 163.511719 C 101.128906 162.679688 99.710938 161.976562 98.3125 161.382812 C 96.90625 160.789062 95.503906 160.351562 94.152344 159.972656 C 91.429688 159.273438 88.863281 158.976562 86.59375 158.910156 C 84.328125 158.851562 82.355469 159.035156 80.757812 159.277344 C 79.15625 159.519531 77.925781 159.824219 77.09375 160.042969 C 76.679688 160.15625 76.363281 160.246094 76.152344 160.308594 C 75.9375 160.371094 75.828125 160.402344 75.828125 160.402344 C 75.828125 160.402344 75.929688 160.351562 76.128906 160.253906 C 76.328125 160.15625 76.625 160.015625 77.019531 159.835938 C 77.8125 159.484375 78.992188 158.984375 80.578125 158.5 C 82.164062 158.015625 84.15625 157.542969 86.53125 157.296875 C 88.898438 157.058594 91.644531 157.039062 94.660156 157.472656 C 96.160156 157.71875 97.730469 158.035156 99.328125 158.53125 C 100.925781 159.027344 102.558594 159.65625 104.1875 160.445312 C 107.433594 162.054688 110.675781 164.3125 113.535156 167.285156 C 116.386719 170.257812 118.847656 173.941406 120.511719 178.152344 C 122.179688 182.355469 123.03125 187.082031 122.832031 191.882812 C 122.648438 196.6875 121.414062 201.328125 119.410156 205.382812 C 117.40625 209.441406 114.65625 212.914062 111.574219 215.640625 C 110.03125 217.007812 108.40625 218.191406 106.746094 219.203125 C 106.328125 219.445312 105.921875 219.703125 105.5 219.925781 C 105.078125 220.148438 104.65625 220.371094 104.242188 220.589844 C 103.816406 220.785156 103.390625 220.980469 102.972656 221.175781 C 102.554688 221.371094 102.125 221.527344 101.707031 221.703125 C 98.332031 223.035156 95 223.695312 91.96875 223.890625 C 88.933594 224.109375 86.195312 223.855469 83.851562 223.425781 C 82.679688 223.210938 81.605469 222.9375 80.632812 222.648438 C 79.660156 222.359375 78.789062 222.050781 78.019531 221.738281 C 76.476562 221.128906 75.339844 220.539062 74.582031 220.117188 C 74.199219 219.914062 73.917969 219.742188 73.726562 219.628906 C 73.535156 219.515625 73.4375 219.457031 73.4375 219.457031 " fill-opacity="1" fill-rule="nonzero"/><path fill="#2d63ad" d="M 92.730469 216.851562 C 92.730469 216.851562 92.992188 216.734375 93.480469 216.507812 C 93.726562 216.398438 94.03125 216.253906 94.382812 216.082031 C 94.738281 215.914062 95.148438 215.714844 95.601562 215.480469 C 96.511719 215.019531 97.609375 214.429688 98.832031 213.675781 C 100.058594 212.929688 101.402344 212.007812 102.757812 210.863281 C 104.097656 209.714844 105.464844 208.339844 106.546875 206.660156 C 107.082031 205.820312 107.542969 204.910156 107.886719 203.941406 C 108.050781 203.453125 108.199219 202.957031 108.292969 202.445312 C 108.398438 201.933594 108.457031 201.410156 108.480469 200.882812 C 108.585938 198.761719 107.992188 196.535156 106.824219 194.46875 C 105.660156 192.398438 103.953125 190.492188 101.949219 188.816406 C 100.9375 187.984375 99.878906 187.21875 98.792969 186.527344 C 97.703125 185.839844 96.585938 185.21875 95.457031 184.660156 C 95.175781 184.519531 94.894531 184.382812 94.609375 184.253906 C 94.328125 184.117188 94.042969 183.992188 93.757812 183.867188 C 93.1875 183.617188 92.636719 183.402344 92.015625 183.136719 C 90.804688 182.628906 89.640625 182.078125 88.539062 181.480469 C 84.121094 179.09375 80.617188 176.007812 78.492188 172.824219 C 77.421875 171.238281 76.691406 169.652344 76.257812 168.207031 C 75.828125 166.757812 75.675781 165.460938 75.675781 164.414062 C 75.671875 163.367188 75.808594 162.566406 75.898438 162.03125 C 76.023438 161.503906 76.085938 161.226562 76.085938 161.226562 C 76.085938 161.226562 76.070312 161.511719 76.046875 162.050781 C 76.046875 162.585938 76.046875 163.378906 76.207031 164.371094 C 76.363281 165.363281 76.6875 166.550781 77.265625 167.828125 C 77.847656 169.105469 78.703125 170.464844 79.847656 171.792969 C 82.125 174.46875 85.589844 176.972656 89.820312 178.910156 C 90.878906 179.398438 91.988281 179.84375 93.136719 180.257812 C 93.691406 180.460938 94.34375 180.683594 94.964844 180.929688 C 95.277344 181.050781 95.59375 181.171875 95.90625 181.304688 C 96.21875 181.4375 96.535156 181.570312 96.847656 181.714844 C 98.097656 182.28125 99.347656 182.929688 100.566406 183.667969 C 101.789062 184.414062 102.980469 185.253906 104.125 186.199219 C 106.398438 188.101562 108.363281 190.355469 109.695312 192.929688 C 110.019531 193.574219 110.316406 194.230469 110.558594 194.90625 C 110.796875 195.585938 111.003906 196.269531 111.140625 196.964844 C 111.425781 198.351562 111.496094 199.765625 111.34375 201.117188 C 111.265625 201.792969 111.144531 202.453125 110.960938 203.085938 C 110.792969 203.722656 110.5625 204.328125 110.3125 204.910156 C 109.796875 206.066406 109.148438 207.101562 108.433594 208.015625 C 107.003906 209.839844 105.34375 211.171875 103.777344 212.222656 C 102.199219 213.269531 100.6875 214.039062 99.332031 214.632812 C 97.980469 215.226562 96.785156 215.652344 95.804688 215.972656 C 95.316406 216.132812 94.878906 216.265625 94.496094 216.375 C 94.117188 216.488281 93.792969 216.578125 93.53125 216.644531 C 93.007812 216.78125 92.730469 216.851562 92.730469 216.851562 " fill-opacity="1" fill-rule="nonzero"/><g clip-path="url(#51bdd3be7c)"><path fill="#2d63ad" d="M 46.128906 160.875 C 46.128906 160.875 45.890625 161.386719 45.4375 162.359375 C 45.011719 163.34375 44.378906 164.789062 43.726562 166.703125 C 43.074219 168.609375 42.402344 170.984375 41.894531 173.769531 C 41.390625 176.554688 41.074219 179.761719 41.144531 183.277344 C 41.171875 184.15625 41.199219 185.050781 41.289062 185.964844 C 41.324219 186.421875 41.363281 186.882812 41.402344 187.351562 C 41.460938 187.8125 41.523438 188.28125 41.585938 188.753906 C 41.6875 189.699219 41.890625 190.652344 42.058594 191.621094 C 42.097656 191.863281 42.15625 192.105469 42.210938 192.347656 C 42.269531 192.589844 42.324219 192.832031 42.382812 193.078125 C 42.5 193.566406 42.59375 194.058594 42.746094 194.546875 C 42.882812 195.039062 43.023438 195.53125 43.164062 196.027344 C 43.308594 196.523438 43.488281 197.011719 43.648438 197.511719 C 43.730469 197.757812 43.816406 198.007812 43.898438 198.257812 C 43.992188 198.507812 44.089844 198.753906 44.183594 199 C 44.378906 199.496094 44.5625 200 44.773438 200.492188 C 45.609375 202.480469 46.617188 204.449219 47.765625 206.394531 C 48.066406 206.875 48.367188 207.355469 48.667969 207.84375 C 48.988281 208.3125 49.3125 208.789062 49.640625 209.261719 L 49.886719 209.621094 L 50.148438 209.96875 C 50.324219 210.199219 50.5 210.429688 50.675781 210.664062 C 50.851562 210.894531 51.027344 211.128906 51.203125 211.363281 C 51.390625 211.585938 51.582031 211.8125 51.769531 212.039062 C 53.269531 213.851562 54.917969 215.605469 56.753906 217.210938 C 60.410156 220.4375 64.6875 223.199219 69.429688 225.210938 C 74.179688 227.207031 79.140625 228.328125 84.003906 228.695312 C 88.875 229.03125 93.628906 228.613281 98.023438 227.566406 C 100.222656 227.046875 102.335938 226.382812 104.339844 225.589844 C 106.339844 224.789062 108.230469 223.875 110.007812 222.878906 C 111.785156 221.882812 113.445312 220.808594 114.96875 219.667969 C 116.492188 218.527344 117.917969 217.363281 119.1875 216.148438 C 119.347656 216 119.515625 215.855469 119.667969 215.703125 C 119.820312 215.550781 119.972656 215.398438 120.125 215.246094 C 120.425781 214.941406 120.738281 214.648438 121.023438 214.339844 C 121.589844 213.722656 122.164062 213.136719 122.671875 212.523438 C 122.929688 212.21875 123.191406 211.925781 123.4375 211.625 C 123.679688 211.320312 123.917969 211.023438 124.152344 210.726562 C 124.269531 210.578125 124.386719 210.433594 124.5 210.289062 C 124.609375 210.136719 124.71875 209.988281 124.828125 209.84375 C 125.042969 209.546875 125.257812 209.257812 125.46875 208.972656 C 127.117188 206.667969 128.339844 204.527344 129.246094 202.722656 C 129.484375 202.277344 129.675781 201.84375 129.871094 201.4375 C 130.054688 201.03125 130.25 200.65625 130.398438 200.292969 C 130.695312 199.574219 130.972656 198.96875 131.160156 198.46875 C 131.542969 197.464844 131.742188 196.9375 131.742188 196.9375 C 131.742188 196.9375 131.640625 197.492188 131.441406 198.550781 C 131.34375 199.082031 131.171875 199.726562 130.992188 200.5 C 130.90625 200.886719 130.773438 201.289062 130.652344 201.730469 C 130.523438 202.167969 130.398438 202.640625 130.226562 203.128906 C 129.597656 205.09375 128.683594 207.46875 127.304688 210.097656 C 127.128906 210.421875 126.949219 210.753906 126.765625 211.089844 C 126.671875 211.257812 126.582031 211.429688 126.488281 211.601562 C 126.386719 211.769531 126.285156 211.9375 126.183594 212.109375 C 125.980469 212.449219 125.773438 212.792969 125.5625 213.144531 C 125.34375 213.496094 125.109375 213.835938 124.878906 214.191406 C 124.425781 214.90625 123.902344 215.601562 123.378906 216.332031 C 123.117188 216.691406 122.828125 217.042969 122.546875 217.40625 C 122.402344 217.585938 122.257812 217.769531 122.113281 217.949219 C 121.96875 218.132812 121.8125 218.308594 121.660156 218.488281 C 120.457031 219.945312 119.066406 221.367188 117.546875 222.777344 C 116.027344 224.1875 114.332031 225.542969 112.480469 226.820312 C 110.632812 228.097656 108.625 229.296875 106.464844 230.363281 C 104.300781 231.425781 101.984375 232.351562 99.542969 233.105469 C 94.664062 234.613281 89.257812 235.386719 83.664062 235.199219 C 78.074219 234.984375 72.285156 233.792969 66.785156 231.480469 C 61.296875 229.15625 56.398438 225.855469 52.339844 222 C 50.304688 220.082031 48.503906 217.992188 46.898438 215.839844 C 46.699219 215.574219 46.5 215.304688 46.300781 215.035156 C 46.113281 214.757812 45.925781 214.484375 45.738281 214.210938 C 45.554688 213.933594 45.371094 213.660156 45.1875 213.386719 L 44.914062 212.972656 L 44.660156 212.554688 C 44.320312 211.992188 43.980469 211.4375 43.65625 210.878906 C 43.351562 210.304688 43.046875 209.738281 42.746094 209.175781 C 41.589844 206.898438 40.625 204.597656 39.871094 202.308594 C 39.679688 201.738281 39.523438 201.160156 39.351562 200.59375 C 39.269531 200.3125 39.1875 200.027344 39.105469 199.746094 C 39.035156 199.460938 38.96875 199.175781 38.898438 198.890625 C 38.769531 198.324219 38.621094 197.765625 38.507812 197.203125 C 38.402344 196.640625 38.300781 196.082031 38.199219 195.53125 C 38.082031 194.980469 38.027344 194.421875 37.953125 193.875 C 37.914062 193.605469 37.878906 193.332031 37.84375 193.0625 C 37.808594 192.789062 37.773438 192.519531 37.753906 192.25 C 37.675781 191.171875 37.5625 190.117188 37.5625 189.078125 C 37.546875 188.558594 37.53125 188.046875 37.527344 187.542969 C 37.539062 187.035156 37.554688 186.53125 37.566406 186.039062 C 37.582031 185.046875 37.664062 184.082031 37.746094 183.140625 C 38.109375 179.382812 38.886719 176.054688 39.808594 173.238281 C 40.738281 170.421875 41.785156 168.105469 42.75 166.28125 C 43.714844 164.453125 44.589844 163.117188 45.183594 162.21875 C 45.804688 161.335938 46.128906 160.875 46.128906 160.875 " fill-opacity="1" fill-rule="nonzero"/></g><g clip-path="url(#590c432ca5)"><path fill="#52a5d7" d="M 125.503906 168.699219 C 125.503906 168.699219 125.308594 168.339844 124.929688 167.65625 C 124.550781 166.980469 123.964844 165.992188 123.164062 164.773438 C 122.351562 163.558594 121.296875 162.121094 119.960938 160.574219 C 119.640625 160.179688 119.269531 159.800781 118.90625 159.394531 C 118.539062 158.996094 118.136719 158.605469 117.742188 158.191406 C 116.910156 157.394531 116.035156 156.5625 115.050781 155.761719 C 114.574219 155.351562 114.054688 154.964844 113.539062 154.558594 C 113.273438 154.359375 113 154.171875 112.730469 153.972656 C 112.59375 153.875 112.457031 153.773438 112.320312 153.675781 C 112.179688 153.582031 112.039062 153.484375 111.894531 153.390625 C 110.769531 152.617188 109.550781 151.886719 108.265625 151.195312 C 107.625 150.84375 106.957031 150.527344 106.28125 150.199219 C 105.9375 150.046875 105.59375 149.890625 105.246094 149.738281 C 104.898438 149.578125 104.539062 149.445312 104.183594 149.300781 C 102.75 148.730469 101.25 148.230469 99.6875 147.8125 C 96.566406 146.984375 93.207031 146.519531 89.726562 146.5 C 86.242188 146.488281 82.652344 146.921875 79.113281 147.878906 C 78.671875 148.003906 78.230469 148.128906 77.792969 148.253906 C 77.363281 148.398438 76.929688 148.539062 76.5 148.683594 C 76.066406 148.8125 75.652344 148.996094 75.230469 149.152344 L 74.601562 149.390625 C 74.390625 149.472656 74.1875 149.570312 73.984375 149.65625 C 72.328125 150.339844 70.765625 151.164062 69.265625 152.046875 C 66.269531 153.8125 63.621094 155.941406 61.335938 158.222656 C 59.074219 160.527344 57.144531 162.976562 55.632812 165.472656 C 54.105469 167.960938 52.9375 170.460938 52.078125 172.835938 C 50.351562 177.59375 49.832031 181.804688 49.640625 184.710938 C 49.554688 186.167969 49.558594 187.316406 49.570312 188.09375 C 49.585938 188.871094 49.601562 189.28125 49.601562 189.28125 C 49.601562 189.28125 49.480469 188.890625 49.28125 188.132812 C 49.085938 187.375 48.816406 186.246094 48.578125 184.765625 C 48.46875 184.023438 48.347656 183.195312 48.28125 182.28125 C 48.25 181.820312 48.214844 181.34375 48.179688 180.847656 C 48.148438 180.347656 48.152344 179.828125 48.136719 179.289062 C 48.121094 177.132812 48.28125 174.65625 48.792969 171.945312 C 49.300781 169.242188 50.167969 166.308594 51.511719 163.3125 C 52.839844 160.304688 54.707031 157.273438 57.066406 154.378906 C 59.453125 151.511719 62.367188 148.792969 65.792969 146.535156 C 67.503906 145.410156 69.324219 144.363281 71.265625 143.5 C 71.507812 143.390625 71.746094 143.269531 71.992188 143.171875 C 72.238281 143.070312 72.484375 142.96875 72.734375 142.867188 C 73.230469 142.675781 73.722656 142.453125 74.234375 142.289062 C 74.746094 142.113281 75.253906 141.9375 75.769531 141.761719 C 76.289062 141.613281 76.8125 141.460938 77.335938 141.308594 C 81.550781 140.167969 85.84375 139.769531 89.929688 139.988281 C 94.023438 140.214844 97.921875 141.054688 101.429688 142.339844 C 103.183594 142.988281 104.84375 143.738281 106.398438 144.566406 C 106.785156 144.777344 107.171875 144.972656 107.546875 145.199219 C 107.917969 145.417969 108.285156 145.640625 108.652344 145.855469 C 109.367188 146.316406 110.070312 146.769531 110.734375 147.253906 C 112.070312 148.210938 113.300781 149.203125 114.410156 150.234375 C 114.550781 150.359375 114.691406 150.484375 114.828125 150.613281 C 114.960938 150.742188 115.09375 150.875 115.226562 151.003906 C 115.492188 151.265625 115.753906 151.515625 116.007812 151.777344 C 116.5 152.304688 116.992188 152.808594 117.4375 153.335938 C 118.351562 154.363281 119.136719 155.414062 119.859375 156.40625 C 120.203125 156.921875 120.546875 157.40625 120.855469 157.898438 C 121.15625 158.390625 121.460938 158.855469 121.722656 159.332031 C 122.796875 161.203125 123.558594 162.886719 124.105469 164.28125 C 124.644531 165.683594 124.988281 166.789062 125.199219 167.542969 C 125.398438 168.300781 125.503906 168.699219 125.503906 168.699219 " fill-opacity="1" fill-rule="nonzero"/></g><path fill="#2d63ad" d="M 94.714844 158.183594 C 93.609375 157.871094 92.492188 157.773438 91.410156 157.867188 C 91.746094 158.367188 91.929688 158.925781 92.121094 159.507812 C 92.246094 159.535156 92.375 159.566406 92.503906 159.601562 C 96.960938 160.851562 99.5625 165.480469 98.3125 169.9375 C 97.179688 173.984375 93.257812 176.5 89.210938 175.996094 C 89.363281 176.046875 89.519531 176.09375 89.679688 176.140625 C 94.640625 177.53125 99.785156 174.636719 101.175781 169.679688 C 102.566406 164.71875 99.675781 159.574219 94.714844 158.183594 " fill-opacity="1" fill-rule="nonzero"/><path fill="#2d63ad" d="M 105.175781 174.097656 C 105.175781 174.097656 105.203125 174.097656 105.25 174.09375 C 105.300781 174.089844 105.371094 174.09375 105.460938 174.078125 C 105.640625 174.0625 105.890625 174.011719 106.164062 173.898438 C 106.296875 173.84375 106.4375 173.765625 106.574219 173.679688 C 106.707031 173.582031 106.84375 173.476562 106.960938 173.34375 C 107.078125 173.214844 107.191406 173.074219 107.28125 172.910156 C 107.371094 172.75 107.441406 172.574219 107.496094 172.390625 C 107.546875 172.203125 107.574219 172.015625 107.582031 171.832031 C 107.589844 171.644531 107.5625 171.464844 107.53125 171.292969 C 107.496094 171.121094 107.433594 170.960938 107.371094 170.808594 C 107.300781 170.664062 107.222656 170.523438 107.132812 170.40625 C 106.960938 170.167969 106.769531 169.996094 106.625 169.890625 C 106.554688 169.832031 106.492188 169.796875 106.453125 169.769531 C 106.414062 169.742188 106.390625 169.726562 106.390625 169.726562 C 106.390625 169.726562 106.417969 169.726562 106.464844 169.726562 C 106.515625 169.734375 106.589844 169.730469 106.683594 169.75 C 106.871094 169.777344 107.152344 169.847656 107.460938 170.042969 C 107.617188 170.136719 107.769531 170.265625 107.921875 170.425781 C 108.066406 170.589844 108.207031 170.785156 108.3125 171.015625 C 108.414062 171.246094 108.496094 171.507812 108.519531 171.789062 C 108.542969 172.066406 108.519531 172.363281 108.441406 172.652344 C 108.359375 172.9375 108.226562 173.203125 108.0625 173.429688 C 107.898438 173.660156 107.691406 173.839844 107.484375 173.984375 C 107.277344 174.128906 107.054688 174.222656 106.847656 174.289062 C 106.636719 174.347656 106.4375 174.382812 106.253906 174.382812 C 105.890625 174.386719 105.613281 174.304688 105.4375 174.230469 C 105.347656 174.199219 105.285156 174.15625 105.242188 174.136719 C 105.199219 174.113281 105.175781 174.097656 105.175781 174.097656 " fill-opacity="1" fill-rule="nonzero"/><path fill="#2d63ad" d="M 102.382812 177.679688 C 102.382812 177.679688 102.410156 177.6875 102.453125 177.703125 C 102.5 177.71875 102.566406 177.746094 102.65625 177.769531 C 102.828125 177.820312 103.078125 177.871094 103.371094 177.871094 C 103.519531 177.871094 103.675781 177.851562 103.835938 177.824219 C 103.996094 177.785156 104.160156 177.738281 104.320312 177.664062 C 104.480469 177.585938 104.636719 177.5 104.78125 177.382812 C 104.925781 177.269531 105.058594 177.132812 105.183594 176.984375 C 105.296875 176.828125 105.394531 176.667969 105.472656 176.5 C 105.550781 176.332031 105.59375 176.15625 105.628906 175.984375 C 105.664062 175.8125 105.667969 175.640625 105.667969 175.476562 C 105.65625 175.3125 105.640625 175.152344 105.601562 175.011719 C 105.53125 174.726562 105.421875 174.496094 105.328125 174.339844 C 105.285156 174.261719 105.242188 174.207031 105.214844 174.164062 C 105.191406 174.121094 105.175781 174.097656 105.175781 174.097656 C 105.175781 174.097656 105.199219 174.109375 105.242188 174.128906 C 105.285156 174.152344 105.359375 174.179688 105.4375 174.230469 C 105.601562 174.328125 105.832031 174.503906 106.042969 174.800781 C 106.152344 174.945312 106.242188 175.125 106.324219 175.332031 C 106.390625 175.539062 106.449219 175.773438 106.457031 176.027344 C 106.464844 176.277344 106.441406 176.550781 106.355469 176.816406 C 106.269531 177.085938 106.136719 177.351562 105.957031 177.585938 C 105.769531 177.820312 105.546875 178.015625 105.304688 178.160156 C 105.066406 178.308594 104.808594 178.398438 104.5625 178.453125 C 104.316406 178.507812 104.074219 178.507812 103.855469 178.492188 C 103.640625 178.464844 103.441406 178.421875 103.273438 178.351562 C 102.933594 178.214844 102.710938 178.039062 102.574219 177.902344 C 102.503906 177.835938 102.460938 177.773438 102.429688 177.738281 C 102.398438 177.699219 102.382812 177.679688 102.382812 177.679688 " fill-opacity="1" fill-rule="nonzero"/><path fill="#2d63ad" d="M 98.644531 180.253906 C 98.644531 180.253906 98.664062 180.269531 98.703125 180.296875 C 98.746094 180.324219 98.796875 180.375 98.875 180.421875 C 99.023438 180.523438 99.25 180.644531 99.53125 180.734375 C 99.667969 180.78125 99.824219 180.804688 99.988281 180.828125 C 100.152344 180.839844 100.324219 180.84375 100.5 180.820312 C 100.671875 180.796875 100.851562 180.757812 101.023438 180.691406 C 101.191406 180.625 101.359375 180.539062 101.523438 180.433594 C 101.679688 180.320312 101.820312 180.195312 101.945312 180.058594 C 102.070312 179.921875 102.164062 179.765625 102.25 179.613281 C 102.335938 179.457031 102.390625 179.296875 102.441406 179.140625 C 102.476562 178.980469 102.507812 178.824219 102.515625 178.675781 C 102.535156 178.386719 102.5 178.128906 102.457031 177.957031 C 102.441406 177.867188 102.414062 177.800781 102.402344 177.75 C 102.390625 177.703125 102.382812 177.679688 102.382812 177.679688 C 102.382812 177.679688 102.402344 177.695312 102.4375 177.730469 C 102.472656 177.765625 102.53125 177.8125 102.59375 177.882812 C 102.71875 178.027344 102.886719 178.261719 103 178.609375 C 103.058594 178.78125 103.09375 178.980469 103.105469 179.199219 C 103.109375 179.417969 103.09375 179.65625 103.027344 179.902344 C 102.957031 180.144531 102.851562 180.394531 102.691406 180.625 C 102.53125 180.855469 102.320312 181.066406 102.078125 181.238281 C 101.832031 181.40625 101.558594 181.523438 101.285156 181.59375 C 101.015625 181.664062 100.742188 181.667969 100.488281 181.648438 C 100.238281 181.625 100.007812 181.554688 99.804688 181.472656 C 99.605469 181.382812 99.429688 181.277344 99.292969 181.164062 C 99.007812 180.933594 98.847656 180.691406 98.757812 180.523438 C 98.714844 180.441406 98.691406 180.367188 98.671875 180.324219 C 98.652344 180.277344 98.644531 180.253906 98.644531 180.253906 " fill-opacity="1" fill-rule="nonzero"/><path fill="#2d63ad" d="M 106.035156 178.3125 C 106.035156 178.3125 106.0625 178.316406 106.109375 178.328125 C 106.160156 178.335938 106.226562 178.355469 106.316406 178.367188 C 106.496094 178.394531 106.753906 178.40625 107.042969 178.367188 C 107.1875 178.347656 107.339844 178.304688 107.496094 178.253906 C 107.648438 178.195312 107.808594 178.125 107.957031 178.027344 C 108.101562 177.929688 108.246094 177.824219 108.371094 177.6875 C 108.5 177.554688 108.613281 177.402344 108.710938 177.238281 C 108.808594 177.066406 108.878906 176.894531 108.933594 176.71875 C 108.988281 176.539062 109.007812 176.363281 109.019531 176.1875 C 109.027344 176.007812 109.007812 175.839844 108.984375 175.675781 C 108.953125 175.515625 108.914062 175.363281 108.855469 175.226562 C 108.746094 174.953125 108.605469 174.738281 108.492188 174.597656 C 108.4375 174.527344 108.386719 174.476562 108.355469 174.4375 C 108.324219 174.402344 108.304688 174.382812 108.304688 174.382812 C 108.304688 174.382812 108.332031 174.390625 108.378906 174.402344 C 108.425781 174.417969 108.5 174.4375 108.585938 174.476562 C 108.761719 174.550781 109.011719 174.691406 109.265625 174.957031 C 109.390625 175.085938 109.507812 175.25 109.613281 175.441406 C 109.710938 175.640625 109.800781 175.863281 109.84375 176.113281 C 109.886719 176.359375 109.898438 176.632812 109.851562 176.910156 C 109.804688 177.1875 109.710938 177.46875 109.5625 177.726562 C 109.410156 177.984375 109.214844 178.207031 109 178.386719 C 108.78125 178.566406 108.539062 178.691406 108.304688 178.777344 C 108.066406 178.867188 107.828125 178.902344 107.609375 178.914062 C 107.390625 178.917969 107.1875 178.902344 107.011719 178.855469 C 106.660156 178.769531 106.410156 178.621094 106.257812 178.507812 C 106.179688 178.453125 106.128906 178.394531 106.089844 178.363281 C 106.054688 178.332031 106.035156 178.3125 106.035156 178.3125 " fill-opacity="1" fill-rule="nonzero"/><path fill="#2d63ad" d="M 102.738281 181.417969 C 102.738281 181.417969 102.761719 181.429688 102.804688 181.453125 C 102.851562 181.472656 102.910156 181.511719 102.992188 181.550781 C 103.15625 181.625 103.398438 181.714844 103.6875 181.757812 C 103.832031 181.78125 103.992188 181.785156 104.152344 181.78125 C 104.316406 181.765625 104.488281 181.746094 104.65625 181.695312 C 104.824219 181.644531 104.996094 181.582031 105.15625 181.492188 C 105.316406 181.398438 105.46875 181.289062 105.609375 181.15625 C 105.75 181.023438 105.871094 180.878906 105.972656 180.722656 C 106.074219 180.570312 106.148438 180.402344 106.207031 180.238281 C 106.265625 180.070312 106.296875 179.902344 106.324219 179.742188 C 106.335938 179.578125 106.34375 179.417969 106.328125 179.273438 C 106.300781 178.980469 106.226562 178.734375 106.160156 178.566406 C 106.128906 178.480469 106.09375 178.421875 106.074219 178.375 C 106.054688 178.332031 106.042969 178.304688 106.042969 178.304688 C 106.042969 178.304688 106.066406 178.320312 106.105469 178.347656 C 106.148438 178.375 106.214844 178.414062 106.285156 178.476562 C 106.429688 178.597656 106.628906 178.804688 106.796875 179.132812 C 106.878906 179.292969 106.945312 179.484375 106.992188 179.699219 C 107.027344 179.914062 107.046875 180.152344 107.019531 180.40625 C 106.984375 180.65625 106.921875 180.921875 106.796875 181.171875 C 106.671875 181.421875 106.5 181.664062 106.28125 181.871094 C 106.0625 182.074219 105.8125 182.230469 105.554688 182.339844 C 105.296875 182.449219 105.027344 182.5 104.777344 182.515625 C 104.523438 182.53125 104.285156 182.496094 104.070312 182.445312 C 103.859375 182.386719 103.671875 182.3125 103.515625 182.21875 C 103.203125 182.03125 103.007812 181.820312 102.894531 181.667969 C 102.835938 181.59375 102.800781 181.523438 102.777344 181.484375 C 102.75 181.441406 102.738281 181.417969 102.738281 181.417969 " fill-opacity="1" fill-rule="nonzero"/><path fill="#2d63ad" d="M 106.8125 182.390625 C 106.8125 182.390625 106.839844 182.402344 106.886719 182.417969 C 106.933594 182.429688 106.996094 182.460938 107.085938 182.484375 C 107.257812 182.535156 107.507812 182.585938 107.804688 182.582031 C 107.949219 182.585938 108.109375 182.566406 108.269531 182.535156 C 108.429688 182.496094 108.59375 182.453125 108.753906 182.375 C 108.910156 182.300781 109.070312 182.210938 109.214844 182.097656 C 109.359375 181.980469 109.492188 181.847656 109.613281 181.695312 C 109.730469 181.542969 109.824219 181.378906 109.902344 181.214844 C 109.980469 181.042969 110.027344 180.871094 110.0625 180.699219 C 110.097656 180.523438 110.101562 180.355469 110.097656 180.1875 C 110.089844 180.027344 110.070312 179.867188 110.03125 179.726562 C 109.960938 179.441406 109.851562 179.207031 109.761719 179.054688 C 109.71875 178.972656 109.671875 178.917969 109.648438 178.875 C 109.621094 178.835938 109.605469 178.8125 109.605469 178.8125 C 109.605469 178.8125 109.628906 178.824219 109.675781 178.84375 C 109.71875 178.867188 109.789062 178.894531 109.867188 178.945312 C 110.03125 179.042969 110.261719 179.21875 110.476562 179.511719 C 110.582031 179.660156 110.675781 179.839844 110.753906 180.046875 C 110.824219 180.253906 110.878906 180.484375 110.890625 180.738281 C 110.894531 180.992188 110.871094 181.261719 110.785156 181.53125 C 110.703125 181.800781 110.566406 182.0625 110.386719 182.300781 C 110.199219 182.535156 109.976562 182.730469 109.738281 182.875 C 109.5 183.023438 109.242188 183.113281 108.992188 183.167969 C 108.746094 183.222656 108.507812 183.222656 108.289062 183.207031 C 108.070312 183.179688 107.875 183.132812 107.703125 183.066406 C 107.367188 182.929688 107.140625 182.75 107.007812 182.613281 C 106.9375 182.550781 106.894531 182.488281 106.859375 182.449219 C 106.832031 182.414062 106.8125 182.390625 106.8125 182.390625 " fill-opacity="1" fill-rule="nonzero"/><path fill="#2d63ad" d="M 88.046875 219.558594 C 88.046875 219.558594 70.132812 218.410156 63.746094 198.050781 C 63.746094 198.050781 56.597656 203.734375 59.457031 213.453125 C 59.457031 213.453125 60.984375 207.355469 63.289062 205.476562 C 63.289062 205.476562 67.273438 219.175781 88.046875 219.558594 " fill-opacity="1" fill-rule="nonzero"/><path fill="#2d63ad" d="M 102.535156 205.523438 C 102.535156 205.523438 106.375 202.996094 106.941406 199.75 C 107.304688 197.660156 106.453125 195.402344 105.285156 193.335938 C 104.121094 191.265625 102.410156 189.359375 100.40625 187.683594 C 99.398438 186.847656 98.339844 186.085938 97.253906 185.394531 C 96.160156 184.707031 95.042969 184.085938 93.917969 183.527344 C 93.636719 183.386719 93.351562 183.25 93.066406 183.121094 C 92.785156 182.984375 92.5 182.859375 92.214844 182.734375 C 92.140625 182.699219 92.0625 182.667969 91.984375 182.636719 C 91.652344 182.625 91.3125 182.621094 90.96875 182.628906 C 90.96875 182.628906 106.109375 192.453125 102.535156 205.523438 " fill-opacity="1" fill-rule="nonzero"/><path fill="#2d63ad" d="M 105.964844 161.949219 C 109.210938 163.558594 112.453125 165.816406 115.3125 168.789062 C 118.164062 171.757812 120.621094 175.445312 122.285156 179.652344 C 122.796875 180.9375 123.226562 182.265625 123.578125 183.632812 L 127.867188 186.167969 C 127.867188 172.707031 116.375 161.925781 102.375 160.457031 C 103.5625 160.875 104.765625 161.367188 105.964844 161.949219 " fill-opacity="1" fill-rule="nonzero"/><g fill="#2d63ad" fill-opacity="1"><g transform="translate(144.946723, 184.436193)"><g><path d="M 10.386719 -9.808594 L 10.386719 -11.96875 L 1.042969 -11.96875 L 1.042969 0 L 3.78125 0 L 3.78125 -4.878906 L 9.773438 -4.878906 L 9.773438 -6.910156 L 3.78125 -6.910156 L 3.78125 -9.808594 Z M 10.386719 -9.808594 "/></g></g></g><g fill="#2d63ad" fill-opacity="1"><g transform="translate(156.08869, 184.436193)"><g><path d="M 0.988281 -4.480469 C 0.988281 -1.351562 2.789062 0.289062 6.371094 0.289062 C 9.953125 0.289062 11.734375 -1.367188 11.734375 -4.480469 L 11.734375 -11.96875 L 9.019531 -11.96875 L 9.019531 -4.859375 C 9.019531 -2.539062 8.136719 -1.945312 6.371094 -1.945312 C 4.609375 -1.945312 3.726562 -2.539062 3.726562 -4.859375 L 3.726562 -11.96875 L 0.988281 -11.96875 Z M 0.988281 -4.480469 "/></g></g></g><g fill="#2d63ad" fill-opacity="1"><g transform="translate(168.814657, 184.436193)"><g><path d="M 6.804688 -11.96875 L 1.042969 -11.96875 L 1.042969 0 L 6.804688 0 C 10.691406 0 12.457031 -2.84375 12.457031 -6.011719 C 12.457031 -9.160156 10.691406 -11.96875 6.804688 -11.96875 Z M 6.191406 -2.179688 L 3.78125 -2.179688 L 3.78125 -9.808594 L 6.191406 -9.808594 C 8.621094 -9.808594 9.613281 -8.566406 9.613281 -6.011719 C 9.613281 -3.472656 8.640625 -2.179688 6.191406 -2.179688 Z M 6.191406 -2.179688 "/></g></g></g><g fill="#2d63ad" fill-opacity="1"><g transform="translate(181.954613, 184.436193)"><g><path d="M 10.386719 0 L 13.140625 0 L 8.929688 -11.96875 L 4.753906 -11.96875 L 0.539062 0 L 3.292969 0 L 4.15625 -2.449219 L 9.523438 -2.449219 Z M 4.894531 -4.554688 L 6.839844 -10.078125 L 8.785156 -4.554688 Z M 4.894531 -4.554688 "/></g></g></g><g fill="#2d63ad" fill-opacity="1"><g transform="translate(144.946723, 204.974972)"><g><path d="M 6.625 -7.980469 L 6.625 -0.671875 C 6.46875 -1.03125 6.277344 -1.429688 6.121094 -1.703125 L 2.496094 -7.980469 L 0.816406 -7.980469 L 0.816406 0 L 1.8125 0 L 1.8125 -7.308594 C 1.945312 -6.996094 2.113281 -6.648438 2.316406 -6.265625 L 5.941406 0 L 7.609375 0 L 7.609375 -7.980469 Z M 6.625 -7.980469 "/></g></g></g><g fill="#2d63ad" fill-opacity="1"><g transform="translate(153.382735, 204.974972)"><g><path d="M 0.804688 -2.855469 C 0.804688 -0.898438 1.8125 0.191406 4.042969 0.191406 C 6.265625 0.191406 7.285156 -0.910156 7.285156 -2.855469 L 7.285156 -7.980469 L 6.289062 -7.980469 L 6.289062 -2.976562 C 6.289062 -1.152344 5.53125 -0.636719 4.042969 -0.636719 C 2.554688 -0.636719 1.789062 -1.152344 1.789062 -2.976562 L 1.789062 -7.980469 L 0.804688 -7.980469 Z M 0.804688 -2.855469 "/></g></g></g><g fill="#2d63ad" fill-opacity="1"><g transform="translate(161.45875, 204.974972)"><g><path d="M 7.117188 -7.980469 L 0.394531 -7.980469 L 0.394531 -7.175781 L 3.277344 -7.175781 L 3.277344 0.0117188 L 4.261719 0.0117188 L 4.261719 -7.175781 L 7.117188 -7.175781 Z M 7.117188 -7.980469 "/></g></g></g><g fill="#2d63ad" fill-opacity="1"><g transform="translate(168.982759, 204.974972)"><g><path d="M 6.730469 -2.113281 C 6.730469 -3.289062 6.191406 -3.648438 5.4375 -3.863281 C 6.324219 -4.066406 6.984375 -4.8125 6.984375 -5.878906 C 6.984375 -7.164062 6.179688 -7.980469 4.535156 -7.980469 L 0.816406 -7.980469 L 0.816406 0 L 1.8125 0 L 1.8125 -3.574219 L 4.054688 -3.574219 C 5.160156 -3.574219 5.773438 -3.109375 5.773438 -1.96875 L 5.773438 -1.234375 C 5.773438 -0.660156 5.832031 -0.265625 5.914062 0 L 6.886719 0 C 6.816406 -0.300781 6.730469 -0.683594 6.730469 -1.273438 Z M 4.414062 -4.320312 L 1.8125 -4.320312 L 1.8125 -7.175781 L 4.429688 -7.175781 C 5.472656 -7.175781 5.941406 -6.71875 5.941406 -5.796875 C 5.941406 -4.882812 5.53125 -4.320312 4.414062 -4.320312 Z M 4.414062 -4.320312 "/></g></g></g><g fill="#2d63ad" fill-opacity="1"><g transform="translate(176.746774, 204.974972)"><g><path d="M 5.171875 -7.175781 L 5.171875 -7.980469 L 0.804688 -7.980469 L 0.804688 -7.175781 L 2.496094 -7.175781 L 2.496094 -0.804688 L 0.804688 -0.804688 L 0.804688 0 L 5.171875 0 L 5.171875 -0.804688 L 3.480469 -0.804688 L 3.480469 -7.175781 Z M 5.171875 -7.175781 "/></g></g></g><g fill="#2d63ad" fill-opacity="1"><g transform="translate(182.722786, 204.974972)"><g><path d="M 7.117188 -7.980469 L 0.394531 -7.980469 L 0.394531 -7.175781 L 3.277344 -7.175781 L 3.277344 0.0117188 L 4.261719 0.0117188 L 4.261719 -7.175781 L 7.117188 -7.175781 Z M 7.117188 -7.980469 "/></g></g></g><g fill="#2d63ad" fill-opacity="1"><g transform="translate(190.246796, 204.974972)"><g><path d="M 5.171875 -7.175781 L 5.171875 -7.980469 L 0.804688 -7.980469 L 0.804688 -7.175781 L 2.496094 -7.175781 L 2.496094 -0.804688 L 0.804688 -0.804688 L 0.804688 0 L 5.171875 0 L 5.171875 -0.804688 L 3.480469 -0.804688 L 3.480469 -7.175781 Z M 5.171875 -7.175781 "/></g></g></g><g fill="#2d63ad" fill-opacity="1"><g transform="translate(196.222808, 204.974972)"><g><path d="M 4.632812 0.203125 C 7.402344 0.203125 8.617188 -1.597656 8.617188 -3.996094 C 8.617188 -6.359375 7.402344 -8.195312 4.632812 -8.195312 C 1.859375 -8.195312 0.660156 -6.371094 0.660156 -3.996094 C 0.660156 -1.585938 1.859375 0.203125 4.632812 0.203125 Z M 1.703125 -3.996094 C 1.703125 -6.238281 2.59375 -7.367188 4.632812 -7.367188 C 6.671875 -7.367188 7.570312 -6.238281 7.570312 -3.996094 C 7.570312 -1.753906 6.671875 -0.625 4.632812 -0.625 C 2.59375 -0.625 1.703125 -1.753906 1.703125 -3.996094 Z M 1.703125 -3.996094 "/></g></g></g><g fill="#2d63ad" fill-opacity="1"><g transform="translate(205.498828, 204.974972)"><g><path d="M 6.625 -7.980469 L 6.625 -0.671875 C 6.46875 -1.03125 6.277344 -1.429688 6.121094 -1.703125 L 2.496094 -7.980469 L 0.816406 -7.980469 L 0.816406 0 L 1.8125 0 L 1.8125 -7.308594 C 1.945312 -6.996094 2.113281 -6.648438 2.316406 -6.265625 L 5.941406 0 L 7.609375 0 L 7.609375 -7.980469 Z M 6.625 -7.980469 "/></g></g></g><g fill="#2d63ad" fill-opacity="1"><g transform="translate(213.93484, 204.974972)"><g/></g></g><g fill="#2d63ad" fill-opacity="1"><g transform="translate(216.634844, 204.974972)"><g><path d="M 6.707031 -7.175781 L 6.707031 -7.980469 L 0.816406 -7.980469 L 0.816406 0 L 1.8125 0 L 1.8125 -3.648438 L 6.347656 -3.648438 L 6.347656 -4.441406 L 1.8125 -4.441406 L 1.8125 -7.175781 Z M 6.707031 -7.175781 "/></g></g></g><g fill="#2d63ad" fill-opacity="1"><g transform="translate(224.002859, 204.974972)"><g><path d="M 4.632812 0.203125 C 7.402344 0.203125 8.617188 -1.597656 8.617188 -3.996094 C 8.617188 -6.359375 7.402344 -8.195312 4.632812 -8.195312 C 1.859375 -8.195312 0.660156 -6.371094 0.660156 -3.996094 C 0.660156 -1.585938 1.859375 0.203125 4.632812 0.203125 Z M 1.703125 -3.996094 C 1.703125 -6.238281 2.59375 -7.367188 4.632812 -7.367188 C 6.671875 -7.367188 7.570312 -6.238281 7.570312 -3.996094 C 7.570312 -1.753906 6.671875 -0.625 4.632812 -0.625 C 2.59375 -0.625 1.703125 -1.753906 1.703125 -3.996094 Z M 1.703125 -3.996094 "/></g></g></g><g fill="#2d63ad" fill-opacity="1"><g transform="translate(233.278878, 204.974972)"><g><path d="M 6.730469 -2.113281 C 6.730469 -3.289062 6.191406 -3.648438 5.4375 -3.863281 C 6.324219 -4.066406 6.984375 -4.8125 6.984375 -5.878906 C 6.984375 -7.164062 6.179688 -7.980469 4.535156 -7.980469 L 0.816406 -7.980469 L 0.816406 0 L 1.8125 0 L 1.8125 -3.574219 L 4.054688 -3.574219 C 5.160156 -3.574219 5.773438 -3.109375 5.773438 -1.96875 L 5.773438 -1.234375 C 5.773438 -0.660156 5.832031 -0.265625 5.914062 0 L 6.886719 0 C 6.816406 -0.300781 6.730469 -0.683594 6.730469 -1.273438 Z M 4.414062 -4.320312 L 1.8125 -4.320312 L 1.8125 -7.175781 L 4.429688 -7.175781 C 5.472656 -7.175781 5.941406 -6.71875 5.941406 -5.796875 C 5.941406 -4.882812 5.53125 -4.320312 4.414062 -4.320312 Z M 4.414062 -4.320312 "/></g></g></g><g fill="#2d63ad" fill-opacity="1"><g transform="translate(241.042893, 204.974972)"><g/></g></g><g fill="#2d63ad" fill-opacity="1"><g transform="translate(243.742897, 204.974972)"><g><path d="M 6.960938 0 L 7.96875 0 L 4.945312 -7.980469 L 3.46875 -7.980469 L 0.445312 0 L 1.441406 0 L 2.21875 -2.039062 L 6.179688 -2.039062 Z M 2.519531 -2.84375 L 4.199219 -7.261719 L 5.878906 -2.84375 Z M 2.519531 -2.84375 "/></g></g></g><g fill="#2d63ad" fill-opacity="1"><g transform="translate(252.130912, 204.974972)"><g><path d="M 0.660156 -4.117188 C 0.660156 -1.703125 1.882812 0 4.679688 0 L 8.832031 0 L 8.832031 -0.792969 L 6.574219 -0.792969 C 8.003906 -1.34375 8.6875 -2.605469 8.6875 -4.199219 C 8.6875 -6.480469 7.464844 -8.195312 4.679688 -8.195312 C 1.882812 -8.195312 0.660156 -6.492188 0.660156 -4.117188 Z M 1.703125 -4.117188 C 1.703125 -6.335938 2.617188 -7.367188 4.679688 -7.367188 C 6.730469 -7.367188 7.644531 -6.335938 7.644531 -4.117188 C 7.644531 -1.894531 6.730469 -0.828125 4.679688 -0.828125 C 2.617188 -0.828125 1.703125 -1.894531 1.703125 -4.117188 Z M 1.703125 -4.117188 "/></g></g></g><g fill="#2d63ad" fill-opacity="1"><g transform="translate(261.586936, 204.974972)"><g><path d="M 0.804688 -2.855469 C 0.804688 -0.898438 1.8125 0.191406 4.042969 0.191406 C 6.265625 0.191406 7.285156 -0.910156 7.285156 -2.855469 L 7.285156 -7.980469 L 6.289062 -7.980469 L 6.289062 -2.976562 C 6.289062 -1.152344 5.53125 -0.636719 4.042969 -0.636719 C 2.554688 -0.636719 1.789062 -1.152344 1.789062 -2.976562 L 1.789062 -7.980469 L 0.804688 -7.980469 Z M 0.804688 -2.855469 "/></g></g></g><g fill="#2d63ad" fill-opacity="1"><g transform="translate(269.662951, 204.974972)"><g><path d="M 6.960938 0 L 7.96875 0 L 4.945312 -7.980469 L 3.46875 -7.980469 L 0.445312 0 L 1.441406 0 L 2.21875 -2.039062 L 6.179688 -2.039062 Z M 2.519531 -2.84375 L 4.199219 -7.261719 L 5.878906 -2.84375 Z M 2.519531 -2.84375 "/></g></g></g><g fill="#2d63ad" fill-opacity="1"><g transform="translate(278.050966, 204.974972)"><g><path d="M 4.644531 0.203125 C 7.199219 0.203125 8.339844 -1.152344 8.472656 -3.179688 L 7.453125 -3.179688 C 7.34375 -1.558594 6.433594 -0.625 4.621094 -0.625 C 2.628906 -0.625 1.703125 -1.765625 1.703125 -3.996094 C 1.703125 -6.226562 2.652344 -7.367188 4.644531 -7.367188 C 6.371094 -7.367188 7.261719 -6.5625 7.429688 -5.003906 L 8.4375 -5.003906 C 8.242188 -6.984375 7.128906 -8.195312 4.667969 -8.195312 C 1.921875 -8.195312 0.660156 -6.394531 0.660156 -3.996094 C 0.660156 -1.570312 1.894531 0.203125 4.644531 0.203125 Z M 4.644531 0.203125 "/></g></g></g><g fill="#2d63ad" fill-opacity="1"><g transform="translate(287.122983, 204.974972)"><g><path d="M 0.804688 -2.855469 C 0.804688 -0.898438 1.8125 0.191406 4.042969 0.191406 C 6.265625 0.191406 7.285156 -0.910156 7.285156 -2.855469 L 7.285156 -7.980469 L 6.289062 -7.980469 L 6.289062 -2.976562 C 6.289062 -1.152344 5.53125 -0.636719 4.042969 -0.636719 C 2.554688 -0.636719 1.789062 -1.152344 1.789062 -2.976562 L 1.789062 -7.980469 L 0.804688 -7.980469 Z M 0.804688 -2.855469 "/></g></g></g><g fill="#2d63ad" fill-opacity="1"><g transform="translate(295.198998, 204.974972)"><g><path d="M 1.8125 -0.804688 L 1.8125 -7.980469 L 0.816406 -7.980469 L 0.816406 0 L 5.988281 0 L 5.988281 -0.804688 Z M 1.8125 -0.804688 "/></g></g></g><g fill="#2d63ad" fill-opacity="1"><g transform="translate(301.451008, 204.974972)"><g><path d="M 7.117188 -7.980469 L 0.394531 -7.980469 L 0.394531 -7.175781 L 3.277344 -7.175781 L 3.277344 0.0117188 L 4.261719 0.0117188 L 4.261719 -7.175781 L 7.117188 -7.175781 Z M 7.117188 -7.980469 "/></g></g></g><g fill="#2d63ad" fill-opacity="1"><g transform="translate(308.975017, 204.974972)"><g><path d="M 0.804688 -2.855469 C 0.804688 -0.898438 1.8125 0.191406 4.042969 0.191406 C 6.265625 0.191406 7.285156 -0.910156 7.285156 -2.855469 L 7.285156 -7.980469 L 6.289062 -7.980469 L 6.289062 -2.976562 C 6.289062 -1.152344 5.53125 -0.636719 4.042969 -0.636719 C 2.554688 -0.636719 1.789062 -1.152344 1.789062 -2.976562 L 1.789062 -7.980469 L 0.804688 -7.980469 Z M 0.804688 -2.855469 "/></g></g></g><g fill="#2d63ad" fill-opacity="1"><g transform="translate(317.051032, 204.974972)"><g><path d="M 6.730469 -2.113281 C 6.730469 -3.289062 6.191406 -3.648438 5.4375 -3.863281 C 6.324219 -4.066406 6.984375 -4.8125 6.984375 -5.878906 C 6.984375 -7.164062 6.179688 -7.980469 4.535156 -7.980469 L 0.816406 -7.980469 L 0.816406 0 L 1.8125 0 L 1.8125 -3.574219 L 4.054688 -3.574219 C 5.160156 -3.574219 5.773438 -3.109375 5.773438 -1.96875 L 5.773438 -1.234375 C 5.773438 -0.660156 5.832031 -0.265625 5.914062 0 L 6.886719 0 C 6.816406 -0.300781 6.730469 -0.683594 6.730469 -1.273438 Z M 4.414062 -4.320312 L 1.8125 -4.320312 L 1.8125 -7.175781 L 4.429688 -7.175781 C 5.472656 -7.175781 5.941406 -6.71875 5.941406 -5.796875 C 5.941406 -4.882812 5.53125 -4.320312 4.414062 -4.320312 Z M 4.414062 -4.320312 "/></g></g></g><g fill="#2d63ad" fill-opacity="1"><g transform="translate(324.815047, 204.974972)"><g><path d="M 1.8125 -0.804688 L 1.8125 -3.707031 L 6.359375 -3.707031 L 6.359375 -4.5 L 1.8125 -4.5 L 1.8125 -7.175781 L 6.71875 -7.175781 L 6.71875 -7.980469 L 0.816406 -7.980469 L 0.816406 0 L 6.757812 0 L 6.757812 -0.804688 Z M 1.8125 -0.804688 "/></g></g></g></svg>